<?xml version="1.0" encoding="UTF-8"?>
<svg id="Layer_1" data-name="Layer 1" xmlns="http://www.w3.org/2000/svg" viewBox="0 0 91.83 105.6">
  <defs>
    <style>
      .cls-1 {
        fill: #fff;
      }

      .cls-2 {
        fill: #0296e0;
      }
    </style>
  </defs>
  <path class="cls-1" d="M41.4.6v105l-23.4-13.5v-13.5l11.4,5.4V21.6l-4.8,2.4v-14.1c5.37-3.18,10.86-7.52,16.8-9.3Z"/>
  <path class="cls-1" d="M61.5,97.19v-13.38h0c14.45-8.16,21.31-22.97,17.52-39.53-4.09-17.88-20.94-21.34-34.02-30.78V0c15.07,9.76,34.73,15.71,42.61,33.29,11.31,25.24-1.04,53.52-26.11,63.9Z"/>
  <path class="cls-1" d="M45,28.2l11.59,6.76c-1.13,21.29,1.3,42.6.01,63.9l-11.6,6.74V28.2Z"/>
  <path class="cls-2" d="M11.4,36v51.6c-1.7.25-10.45-5.03-10.71-5.79l.29-39.86,10.41-5.94Z"/>
  <path class="cls-1" d="M11.4,28.8c-4.1,1.08-7.13,5.33-11.4,6v-13.5l11.4-7.5v15Z"/>
</svg>